HIERARCHY
ROOT Hips
{
	OFFSET -3.958830 18.904000 13.208200
	CHANNELS 6 Xposition Yposition Zposition Zrotation Yrotation Xrotation 
	JOINT LHipJoint
	{
		OFFSET 0.000000 0.000000 0.000000
		CHANNELS 3 Zrotation Yrotation Xrotation
		JOINT LeftUpLeg
		{
			OFFSET 1.800000 -1.400000 0.085000
			CHANNELS 3 Zrotation Yrotation Xrotation
			JOINT LeftLeg
			{
				OFFSET 2.215000 -6.000000 0.000000
				CHANNELS 3 Zrotation Yrotation Xrotation
				JOINT LeftFoot
				{
					OFFSET 2.500000 -6.900000 0.000000
					CHANNELS 3 Zrotation Yrotation Xrotation
					JOINT LeftToeBase
					{
						OFFSET 0.200000 -0.500000 1.950000
						CHANNELS 3 Zrotation Yrotation Xrotation
						End Site
						{
							OFFSET 0.000000 0.000000 0.000000
						}
					}
				}
			}
		}
	}
	JOINT RHipJoint
	{
		OFFSET 0.000000 0.000000 0.000000
		CHANNELS 3 Zrotation Yrotation Xrotation
		JOINT RightUpLeg
		{
			OFFSET -1.800000 -1.400000 0.085000
			CHANNELS 3 Zrotation Yrotation Xrotation
			JOINT RightLeg
			{
				OFFSET -2.215000 -6.000000 0.000000
				CHANNELS 3 Zrotation Yrotation Xrotation
				JOINT RightFoot
				{
					OFFSET -2.500000 -6.900000 0.000000
					CHANNELS 3 Zrotation Yrotation Xrotation
					JOINT RightToeBase
					{
						OFFSET -0.200000 -0.500000 1.950000
						CHANNELS 3 Zrotation Yrotation Xrotation
						End Site
						{
							OFFSET 0.000000 0.000000 0.000000
						}
					}
				}
			}
		}
	}
	JOINT LowerBack
	{
		OFFSET 0.000000 0.000000 0.000000
		CHANNELS 3 Zrotation Yrotation Xrotation
		JOINT Spine
		{
			OFFSET -0.087000 1.940000 -0.288900
			CHANNELS 3 Zrotation Yrotation Xrotation
			JOINT Spine1
			{
				OFFSET 0.000000 1.950000 0.060000
				CHANNELS 3 Zrotation Yrotation Xrotation
				JOINT Neck
				{
					OFFSET 0.000000 0.000000 0.000000
					CHANNELS 3 Zrotation Yrotation Xrotation
					JOINT Neck1
					{
						OFFSET 0.000000 1.600000 0.340000
						CHANNELS 3 Zrotation Yrotation Xrotation
						JOINT Head
						{
							OFFSET 0.000000 1.667000 -0.240000
							CHANNELS 3 Zrotation Yrotation Xrotation
							End Site
							{
								OFFSET 0.000000 0.000000 0.000000
							}
						}
					}
				}
				JOINT LeftShoulder
				{
					OFFSET 0.000000 0.000000 0.000000
					CHANNELS 3 Zrotation Yrotation Xrotation
					JOINT LeftArm
					{
						OFFSET 2.700000 1.550000 -0.730000
						CHANNELS 3 Zrotation Yrotation Xrotation
						JOINT LeftForeArm
						{
							OFFSET 5.450000 0.000000 0.000000
							CHANNELS 3 Zrotation Yrotation Xrotation
							JOINT LeftHand
							{
								OFFSET 3.450000 0.000000 0.000000
								CHANNELS 3 Zrotation Yrotation Xrotation
								JOINT LeftHandIndex1
								{
									OFFSET 0.750000 0.000000 0.000000
									CHANNELS 3 Zrotation Yrotation Xrotation
									End Site
									{
										OFFSET 0.000000 0.000000 0.000000
									}
								}
							}
						}
					}
				}
				JOINT RightShoulder
				{
					OFFSET 0.000000 0.000000 0.000000
					CHANNELS 3 Zrotation Yrotation Xrotation
					JOINT RightArm
					{
						OFFSET -2.700000 1.550000 -0.730000
						CHANNELS 3 Zrotation Yrotation Xrotation
						JOINT RightForeArm
						{
							OFFSET -5.450000 0.000000 0.000000
							CHANNELS 3 Zrotation Yrotation Xrotation
							JOINT RightHand
							{
								OFFSET -3.450000 0.000000 0.000000
								CHANNELS 3 Zrotation Yrotation Xrotation
								JOINT RightHandIndex1
								{
									OFFSET -0.750000 0.000000 0.000000
									CHANNELS 3 Zrotation Yrotation Xrotation
									End Site
									{
										OFFSET 0.000000 0.000000 0.000000
									}
								}
							}
						}
					}
				}
			}
		}
	}
}
MOTION
Frames: 14
Frame Time: 0.016667
-1.134910 17.503920 3.050640 -2.302766 -7.691307 2.575303 -15.303441 11.010854 5.561388 9.394899 -8.707911 -47.784318 -9.027296 13.622077 47.126897 -0.345833 9.917513 1.059394 -0.201060 -0.589010 -0.257670 18.508646 -10.286750 2.078919 -2.270474 -0.168109 -4.438969 8.217792 -6.930753 16.802504 -0.146934 -4.474498 3.055406 -0.027950 0.861920 -0.047870 -3.768595 -0.569347 -8.048824 8.003829 6.851263 10.096119 0.201353 8.140572 1.346606 -0.806392 -6.775332 -4.767473 -15.306795 9.658436 37.899194 1.330550 2.656290 -3.994570 -23.840020 2.723650 -2.392397 -63.384130 -11.998254 0.692406 -17.303400 -27.440497 1.402219 -4.300169 2.393733 0.679330 0.372830 -0.510720 0.030540 24.244768 4.936562 1.693421 51.956929 9.096322 -1.740909 8.159048 7.567039 -0.172110 2.001582 -0.798654 -0.811780 0.747530 0.654770 -0.285260 
-1.139550 17.567540 2.970400 -1.817273 -9.414470 1.926423 -15.350899 10.935382 5.776961 11.131708 -8.925005 -47.765386 -11.509398 16.389175 51.203868 -0.072250 11.191930 0.618824 -0.162490 -0.547140 -0.200890 18.477351 -10.187618 1.997875 -2.658601 -0.176775 -4.385529 7.544002 -6.729181 16.535302 -0.171331 -4.346626 3.082853 -0.017900 0.797210 -0.048330 -3.667925 -0.701769 -8.211335 7.718808 6.946305 11.159881 0.208183 8.449848 1.503849 -0.799742 -6.980639 -5.216192 -16.482777 10.380413 39.904670 1.187680 3.347000 -5.602150 -23.866398 2.195854 -2.216495 -63.228784 -12.829499 0.919802 -18.477586 -30.141071 2.043956 -4.244256 2.388365 0.741550 0.323720 -0.449040 0.012640 24.230115 5.667528 2.080147 52.372121 8.893960 -1.857784 7.878271 7.252106 -0.136988 2.002302 -0.755629 -0.801530 0.751930 0.640720 -0.311220 
-1.147320 17.638460 2.885930 -1.191819 -10.948477 1.172080 -15.409875 10.903701 5.960389 12.494779 -9.140908 -47.469939 -13.720867 19.071538 54.694120 0.185237 12.312762 0.247027 -0.110090 -0.499510 -0.135770 18.425212 -10.093712 1.926137 -3.099717 -0.180923 -4.312637 6.950103 -6.556367 16.297600 -0.205830 -4.229261 3.103549 -0.002910 0.727010 -0.041950 -3.516801 -0.882954 -8.365051 7.010804 7.051386 12.354057 0.434272 8.763569 1.711126 -0.821563 -7.130625 -5.787048 -17.694807 11.137820 42.120558 1.099990 3.986120 -7.392060 -23.719343 1.394625 -1.915557 -62.976981 -13.646379 1.017681 -19.484454 -32.841433 2.643668 -4.177613 2.392944 0.816560 0.268740 -0.380470 0.002860 24.185705 6.696450 2.576591 52.614124 8.708907 -2.001009 7.741113 6.989588 -0.086777 1.996517 -0.720854 -0.791630 0.753030 0.619500 -0.341110 
-1.160820 17.707690 2.795670 -0.434209 -12.075802 0.497740 -15.480624 10.881267 6.116778 13.420131 -9.494135 -47.142804 -15.672281 21.550548 57.627339 0.420142 13.259652 -0.055542 -0.061190 -0.446700 -0.072560 18.361986 -9.995294 1.856980 -3.481566 -0.184922 -4.363978 6.445698 -6.383307 16.015833 -0.230524 -4.106895 3.127744 0.018870 0.659480 -0.045840 -3.329238 -1.082729 -8.484731 5.815387 7.185183 13.373814 0.802756 9.018898 2.125359 -0.884362 -7.117507 -6.315575 -18.514715 11.673977 44.016905 0.937390 4.606210 -9.205100 -23.168818 0.456457 -1.554763 -62.711243 -14.760314 1.198532 -20.318771 -35.467060 3.224655 -4.117084 2.398305 0.876930 0.219130 -0.320540 -0.010370 23.891585 7.746446 3.022473 53.181001 8.688032 -2.105264 7.618478 6.839658 -0.053783 1.991791 -0.690619 -0.784320 0.759350 0.598310 -0.369610 
-1.179620 17.773760 2.704060 0.491927 -12.803937 -0.079606 -15.567199 10.878681 6.244903 13.967396 -10.003617 -46.759073 -17.459957 23.755445 59.934565 0.629442 14.035395 -0.286267 -0.024080 -0.401150 -0.024730 18.281225 -9.893344 1.789139 -3.902949 -0.186712 -4.507091 6.035477 -6.218293 15.631339 -0.244232 -3.989217 3.159407 0.036600 0.611810 -0.050690 -3.087444 -1.317943 -8.575306 3.998981 7.410110 14.203169 1.424028 9.248965 2.543951 -0.995569 -6.948098 -6.795197 -18.855919 11.945550 45.500734 0.790580 5.182110 -10.742060 -22.394068 -0.575083 -1.161009 -62.319147 -15.951335 1.377995 -21.211607 -38.023572 3.853945 -4.069429 2.404006 0.924300 0.185350 -0.274010 -0.020240 23.565776 8.814035 3.480023 53.764885 8.511949 -2.208975 7.670991 6.395074 -0.031759 1.986445 -0.665337 -0.780300 0.769190 0.580470 -0.390660 
-1.198150 17.829380 2.613760 1.260972 -13.207096 -0.398825 -15.648184 10.857626 6.355203 14.395589 -10.581269 -46.599583 -18.823051 25.638317 62.010416 0.814978 14.716183 -0.479058 -0.015800 -0.397930 0.004950 18.212958 -9.781486 1.732124 -4.197865 -0.167883 -4.788573 5.882951 -6.096562 15.118640 -0.241335 -3.887458 3.180189 0.035660 0.588130 -0.039750 -2.874352 -1.532571 -8.638198 2.307448 7.593308 14.622991 2.095873 9.346064 3.103024 -1.105052 -6.668458 -7.214509 -18.727863 11.946070 46.489958 0.510070 5.707600 -11.418500 -21.430907 -1.663498 -0.681507 -62.001998 -17.041094 1.449938 -21.858361 -40.710777 4.419665 -4.051979 2.427163 0.950510 0.174100 -0.248920 -0.036740 23.066622 9.788286 3.893478 54.501204 8.315801 -2.364484 7.491420 6.083513 -0.021773 1.982634 -0.651139 -0.778470 0.766160 0.584250 -0.408450 
-1.214070 17.873600 2.528310 1.878646 -13.306011 -0.452881 -15.716168 10.824931 6.442292 14.628522 -11.217766 -46.583788 -19.723146 27.151692 63.932085 0.984980 15.276517 -0.626958 -0.017170 -0.398350 0.023650 18.160477 -9.680214 1.684078 -4.363371 -0.119039 -5.284401 5.883708 -6.007912 14.714709 -0.228720 -3.799170 3.195656 0.031190 0.571410 -0.029670 -2.703838 -1.698086 -8.673177 0.864923 7.713933 14.654502 2.650275 9.322560 3.740463 -1.130293 -6.300910 -7.555733 -18.163086 11.694628 47.045893 0.079810 6.255140 -11.493040 -20.321126 -2.657687 -0.178897 -61.877922 -18.040428 1.434919 -22.012413 -43.368481 4.812496 -4.040771 2.461061 0.953300 0.173920 -0.235820 -0.052690 22.236454 10.546140 4.212298 55.564155 8.140405 -2.524165 7.299602 5.919003 -0.030502 1.987451 -0.655923 -0.771180 0.751580 0.585820 -0.418640 
-1.226840 17.908240 2.444250 2.435075 -13.230371 -0.370760 -15.770535 10.801416 6.508221 14.692047 -11.878591 -46.532413 -20.429473 28.386736 65.535173 1.109155 15.734785 -0.742644 -0.023330 -0.403800 0.029850 18.118082 -9.596274 1.639340 -4.579898 -0.038473 -5.947940 5.947687 -5.944206 14.413954 -0.202334 -3.717781 3.229424 0.033180 0.565880 -0.037890 -2.566486 -1.841186 -8.689241 -0.389950 7.734326 14.556771 3.052049 9.198755 4.272563 -1.142177 -5.972200 -7.800231 -17.557829 11.456459 47.309704 -0.345990 6.808530 -11.453470 -19.255915 -3.410561 0.247940 -61.709244 -18.893160 1.386101 -21.985140 -46.195533 5.171059 -4.032768 2.477230 0.958590 0.182290 -0.240380 -0.062470 21.377679 11.043037 4.400632 56.699625 8.052769 -2.625181 7.099235 5.649033 -0.042067 1.978122 -0.656604 -0.783630 0.752700 0.589990 -0.435140 
-1.231310 17.935290 2.364400 2.802267 -13.108825 -0.297634 -15.802074 10.792640 6.554264 14.629346 -12.547657 -46.304205 -20.921976 29.380959 67.032007 1.219332 16.119517 -0.839334 -0.027050 -0.401330 0.038580 18.092297 -9.535431 1.611741 -4.659981 0.008629 -6.500652 5.873161 -5.857688 14.142886 -0.189249 -3.632903 3.254286 0.035130 0.553560 -0.041560 -2.484401 -1.958930 -8.709802 -1.085250 7.573969 14.623316 3.121159 8.981790 4.669279 -1.052694 -5.723439 -8.032527 -17.143368 11.346106 47.602070 -0.814210 7.371950 -11.782660 -18.549884 -4.086413 0.576774 -61.330966 -19.551683 1.244357 -21.821143 -48.697120 5.421312 -4.021440 2.486277 0.967890 0.181380 -0.231050 -0.072000 20.597959 11.444924 4.563881 57.685297 7.952237 -2.761116 6.958327 5.513418 -0.043428 1.975677 -0.651668 -0.789330 0.754240 0.592310 -0.446530 
-1.232740 17.940200 2.291610 2.961591 -13.093262 0.067088 -15.820184 10.778268 6.590749 14.680215 -13.057573 -46.161971 -21.069789 30.249769 68.606755 1.322567 16.503401 -0.918439 -0.040640 -0.425990 0.048910 18.082565 -9.476624 1.590706 -4.594054 0.119546 -7.331547 5.904941 -5.798434 14.059869 -0.162665 -3.550656 3.282598 0.026710 0.565000 -0.043800 -2.448533 -2.048690 -8.716753 -1.342735 7.316203 14.432802 3.053089 8.699990 4.878689 -1.017030 -5.668749 -8.099661 -16.964108 11.258992 46.999847 -1.354860 7.812470 -11.625830 -17.980734 -4.280363 0.759275 -61.087434 -20.030918 1.272784 -21.780323 -50.982897 5.738381 -4.027569 2.491748 0.968760 0.194400 -0.241740 -0.078370 19.993586 11.428163 4.584197 58.439056 7.769242 -2.880428 6.880576 5.339518 -0.058383 1.974810 -0.649829 -0.805800 0.761520 0.598160 -0.457890 
-1.231970 17.929620 2.222980 2.975874 -13.080747 0.486501 -15.827099 10.791944 6.593103 14.627029 -13.460803 -45.731943 -20.908076 30.812143 70.023753 1.403668 16.790296 -0.975809 -0.054300 -0.440820 0.056290 18.077423 -9.435478 1.584577 -4.442402 0.253688 -8.275181 6.025578 -5.784874 14.193956 -0.138353 -3.482092 3.304027 0.021470 0.568910 -0.045930 -2.432499 -2.129479 -8.716163 -1.347527 6.986692 14.296758 2.877475 8.384856 4.921791 -0.914351 -5.627939 -8.051150 -16.668385 11.097346 45.989490 -2.274090 8.372420 -11.668910 -17.844079 -4.315574 0.789106 -60.581726 -20.416334 1.343768 -21.856363 -53.035890 6.159975 -4.035420 2.496794 0.962980 0.208220 -0.248710 -0.085580 19.652053 11.236422 4.544702 58.992067 7.517174 -3.027327 6.750612 5.279436 -0.082867 1.975124 -0.651563 -0.816350 0.761980 0.599960 -0.467030 
-1.228510 17.906590 2.158700 2.798627 -13.169672 0.925386 -15.822589 10.817988 6.580548 14.708388 -13.694980 -45.098072 -20.747080 31.288549 71.181419 1.467852 17.017369 -1.024997 -0.073530 -0.458120 0.060340 18.079988 -9.399529 1.593004 -4.198981 0.402972 -9.225533 6.307848 -5.837793 14.514970 -0.114124 -3.433282 3.317786 0.015670 0.566200 -0.053660 -2.444344 -2.205621 -8.720233 -0.999903 6.556785 14.240359 2.597821 8.018244 4.842325 -0.782318 -5.643169 -7.993118 -16.436874 11.130579 44.824765 -3.241630 9.098300 -11.761080 -18.110683 -4.360158 0.766987 -59.827341 -20.551934 1.270723 -21.909939 -54.982359 6.584089 -4.045266 2.499290 0.953370 0.219840 -0.257890 -0.099470 19.627631 11.041687 4.519048 59.269242 7.173301 -3.222588 6.527353 5.345826 -0.107550 1.975642 -0.649386 -0.826790 0.758850 0.605490 -0.478890 
-1.225920 17.864740 2.100770 2.561875 -13.147504 1.523159 -15.817736 10.855918 6.551760 14.778301 -13.930269 -44.382161 -20.375938 31.549215 72.296946 1.505511 17.216096 -1.070328 -0.108260 -0.499960 0.055130 18.084289 -9.359691 1.603651 -3.881080 0.579986 -10.293203 6.590490 -5.923976 15.004184 -0.077726 -3.401884 3.325171 0.002740 0.578780 -0.056790 -2.459236 -2.301687 -8.706003 -0.616936 6.033187 14.015878 2.316814 7.547134 4.619774 -0.681889 -5.679806 -7.768601 -16.072166 11.098158 43.044966 -4.278060 9.789130 -11.642350 -18.492109 -4.038022 0.603367 -59.194257 -20.627125 1.337051 -21.866451 -56.741952 6.981488 -4.074902 2.501387 0.940250 0.245020 -0.283220 -0.120250 19.765864 10.428302 4.353373 59.460274 6.710614 -3.458695 6.372656 5.481616 -0.143824 1.970303 -0.644725 -0.847190 0.753710 0.626360 -0.493980 
-1.222280 17.808690 2.044220 2.214299 -13.004876 2.366928 -15.804305 10.893234 6.508816 14.788481 -14.174703 -43.718722 -19.675665 31.526313 73.473062 1.544212 17.383811 -1.088274 -0.148200 -0.547120 0.026750 18.100152 -9.314441 1.623444 -3.443733 0.828535 -11.691144 6.927408 -6.039616 15.697127 -0.035055 -3.386594 3.335230 -0.010980 0.622570 -0.052720 -2.506083 -2.395122 -8.674432 0.022087 5.365502 13.562206 1.933331 6.927935 4.307122 -0.647203 -5.816557 -7.489905 -15.761192 11.173925 40.668969 -5.001470 10.364110 -10.827990 -18.960136 -3.606157 0.403402 -58.503249 -20.591844 1.401393 -21.524730 -58.337979 7.212041 -4.117372 2.513860 0.909020 0.289470 -0.324000 -0.120370 20.107959 9.679420 4.159052 59.342949 6.131094 -3.689964 6.495686 5.731399 -0.198410 1.958521 -0.655305 -0.868070 0.752760 0.646400 -0.493860 
